<svg width="157" height="189" viewBox="0 0 157 189" fill="none" xmlns="http://www.w3.org/2000/svg">
<circle cx="78" cy="74" r="72" fill="#FF4242" stroke="black" stroke-width="4"/>
<path d="M2.16211 173.209C2.16211 171.381 2.4375 169.828 2.98828 168.551C3.55078 167.262 4.38281 166.213 5.48438 165.404C6.58594 164.584 7.95703 163.986 9.59766 163.611C11.25 163.236 13.166 163.049 15.3457 163.049C16.8691 163.049 18.3457 163.189 19.7754 163.471C21.2051 163.74 22.6582 164.18 24.1348 164.789C24.3223 164.871 24.457 164.977 24.5391 165.105C24.6211 165.223 24.6621 165.34 24.6621 165.457C24.6621 165.598 24.6094 165.721 24.5039 165.826C24.3984 165.932 24.2637 165.984 24.0996 165.984C24.0527 165.984 23.9414 165.955 23.7656 165.896C22.418 165.334 21.0234 164.912 19.582 164.631C18.1406 164.35 16.7285 164.209 15.3457 164.209C13.2598 164.209 11.4785 164.385 10.002 164.736C8.52539 165.076 7.3125 165.615 6.36328 166.354C5.42578 167.08 4.74023 168.012 4.30664 169.148C3.87305 170.273 3.65625 171.627 3.65625 173.209C3.65625 174.791 3.87305 176.15 4.30664 177.287C4.74023 178.412 5.42578 179.344 6.36328 180.082C7.3125 180.809 8.52539 181.348 10.002 181.699C11.4785 182.039 13.2598 182.209 15.3457 182.209C16.7285 182.209 18.1406 182.068 19.582 181.787C21.0234 181.506 22.418 181.084 23.7656 180.521C23.8594 180.475 23.9648 180.451 24.082 180.451C24.2578 180.451 24.3984 180.504 24.5039 180.609C24.6211 180.715 24.6797 180.838 24.6797 180.979C24.6797 181.096 24.6387 181.213 24.5566 181.33C24.4746 181.447 24.334 181.547 24.1348 181.629C22.6465 182.238 21.1875 182.684 19.7578 182.965C18.3398 183.234 16.8691 183.369 15.3457 183.369C13.166 183.369 11.25 183.182 9.59766 182.807C7.95703 182.432 6.58594 181.84 5.48438 181.031C4.38281 180.211 3.55078 179.162 2.98828 177.885C2.4375 176.596 2.16211 175.037 2.16211 173.209ZM28.9863 164.648C28.9863 164.496 28.9922 164.35 29.0039 164.209C29.0273 164.057 29.0684 163.922 29.127 163.805C29.1973 163.688 29.2852 163.594 29.3906 163.523C29.5078 163.453 29.6543 163.418 29.8301 163.418C29.959 163.418 30.0645 163.459 30.1465 163.541C30.2285 163.611 30.293 163.705 30.3398 163.822C30.3984 163.939 30.4336 164.074 30.4453 164.227C30.4688 164.367 30.4805 164.508 30.4805 164.648V172.348H46.0371V164.648C46.0371 164.496 46.043 164.35 46.0547 164.209C46.0664 164.057 46.0957 163.922 46.1426 163.805C46.2012 163.688 46.2773 163.594 46.3711 163.523C46.4648 163.453 46.5996 163.418 46.7754 163.418C46.9512 163.418 47.0859 163.453 47.1797 163.523C47.2852 163.594 47.3613 163.688 47.4082 163.805C47.4668 163.922 47.502 164.057 47.5137 164.209C47.5254 164.35 47.5312 164.496 47.5312 164.648V181.77C47.5312 181.922 47.5254 182.074 47.5137 182.227C47.502 182.367 47.4668 182.496 47.4082 182.613C47.3613 182.73 47.291 182.824 47.1973 182.895C47.1035 182.965 46.9688 183 46.793 183C46.6172 183 46.4766 182.965 46.3711 182.895C46.2773 182.824 46.2012 182.73 46.1426 182.613C46.0957 182.496 46.0664 182.367 46.0547 182.227C46.043 182.074 46.0371 181.922 46.0371 181.77V173.438H30.4805V181.77C30.4805 181.91 30.4688 182.057 30.4453 182.209C30.4219 182.35 30.3809 182.479 30.3223 182.596C30.2754 182.713 30.2051 182.812 30.1113 182.895C30.0293 182.965 29.9238 183 29.7949 183C29.6191 183 29.4727 182.965 29.3555 182.895C29.25 182.824 29.168 182.73 29.1094 182.613C29.0625 182.496 29.0273 182.367 29.0039 182.227C28.9922 182.074 28.9863 181.922 28.9863 181.77V164.648ZM71.209 182.385C71.209 182.561 71.1797 182.689 71.1211 182.771C71.0625 182.854 70.9805 182.912 70.875 182.947C70.7812 182.982 70.6641 183 70.5234 183C70.3828 183 70.2246 183 70.0488 183H53.6309C53.5137 183 53.4258 182.994 53.3672 182.982C53.3086 182.971 53.2617 182.941 53.2266 182.895C53.2031 182.848 53.1855 182.789 53.1738 182.719C53.1738 182.637 53.1738 182.525 53.1738 182.385V164.244C53.1738 164.068 53.1738 163.928 53.1738 163.822C53.1855 163.717 53.209 163.635 53.2441 163.576C53.2793 163.518 53.3379 163.477 53.4199 163.453C53.5137 163.43 53.6484 163.418 53.8242 163.418H69.873C70.0488 163.418 70.2129 163.418 70.3652 163.418C70.5176 163.418 70.6523 163.436 70.7695 163.471C70.8984 163.506 70.998 163.564 71.0684 163.646C71.1387 163.729 71.1738 163.857 71.1738 164.033C71.1738 164.174 71.1387 164.285 71.0684 164.367C70.998 164.438 70.8984 164.49 70.7695 164.525C70.6523 164.561 70.5176 164.578 70.3652 164.578C70.2129 164.578 70.0488 164.578 69.873 164.578H54.668V172.277H69.7852C70.043 172.277 70.2598 172.312 70.4355 172.383C70.6113 172.453 70.6992 172.605 70.6992 172.84C70.6992 173.098 70.623 173.268 70.4707 173.35C70.3301 173.432 70.1426 173.473 69.9082 173.473H54.668V181.84H69.9082C70.084 181.84 70.248 181.84 70.4004 181.84C70.5527 181.84 70.6875 181.857 70.8047 181.893C70.9336 181.928 71.0332 181.986 71.1035 182.068C71.1738 182.139 71.209 182.244 71.209 182.385ZM87.1875 182.209C89.0977 182.209 90.6914 182.027 91.9688 181.664C93.2461 181.289 94.2656 180.727 95.0273 179.977C95.8008 179.227 96.3457 178.289 96.6621 177.164C96.9785 176.027 97.1367 174.691 97.1367 173.156V164.648C97.1367 164.344 97.1836 164.062 97.2773 163.805C97.3711 163.547 97.5645 163.418 97.8574 163.418C98.0332 163.418 98.168 163.453 98.2617 163.523C98.3672 163.594 98.4434 163.688 98.4902 163.805C98.5488 163.922 98.584 164.057 98.5957 164.209C98.6191 164.35 98.6309 164.496 98.6309 164.648V173.156C98.6309 174.984 98.3906 176.549 97.9102 177.85C97.4414 179.139 96.7324 180.193 95.7832 181.014C94.834 181.834 93.6387 182.432 92.1973 182.807C90.7676 183.182 89.0977 183.369 87.1875 183.369C85.2656 183.369 83.5898 183.182 82.1602 182.807C80.7305 182.432 79.5352 181.834 78.5742 181.014C77.6133 180.193 76.8926 179.139 76.4121 177.85C75.9434 176.549 75.709 174.984 75.709 173.156V164.648C75.709 164.496 75.7148 164.35 75.7266 164.209C75.75 164.057 75.791 163.922 75.8496 163.805C75.9082 163.688 75.9844 163.594 76.0781 163.523C76.1836 163.453 76.3242 163.418 76.5 163.418C76.793 163.418 76.9805 163.547 77.0625 163.805C77.1562 164.062 77.2031 164.344 77.2031 164.648V173.156C77.2031 174.691 77.3613 176.027 77.6777 177.164C78.0059 178.289 78.5508 179.227 79.3125 179.977C80.0859 180.727 81.1113 181.289 82.3887 181.664C83.666 182.027 85.2656 182.209 87.1875 182.209ZM123.645 180.75V164.754C123.645 164.578 123.65 164.414 123.662 164.262C123.674 164.098 123.703 163.957 123.75 163.84C123.809 163.711 123.885 163.611 123.979 163.541C124.084 163.459 124.225 163.418 124.4 163.418C124.705 163.418 124.904 163.553 124.998 163.822C125.092 164.08 125.139 164.391 125.139 164.754V181.875C125.139 182.625 124.939 183 124.541 183C124.271 183 123.938 182.818 123.539 182.455L105.416 165.668V181.77C105.416 182.109 105.363 182.402 105.258 182.648C105.164 182.883 104.977 183 104.695 183C104.355 183 104.139 182.883 104.045 182.648C103.963 182.402 103.922 182.109 103.922 181.77V164.561C103.922 164.209 103.986 163.939 104.115 163.752C104.244 163.564 104.42 163.471 104.643 163.471C104.936 163.471 105.275 163.646 105.662 163.998L123.645 180.75ZM143.314 182.209C145.084 182.209 146.771 182.092 148.377 181.857C149.982 181.623 151.6 181.312 153.229 180.926V173.578H144.264C144.123 173.578 143.977 173.578 143.824 173.578C143.684 173.566 143.549 173.543 143.42 173.508C143.303 173.461 143.203 173.396 143.121 173.314C143.051 173.232 143.016 173.115 143.016 172.963C143.016 172.811 143.051 172.693 143.121 172.611C143.203 172.529 143.303 172.471 143.42 172.436C143.537 172.389 143.666 172.365 143.807 172.365C143.959 172.354 144.111 172.348 144.264 172.348H153.229C153.721 172.348 154.055 172.441 154.23 172.629C154.406 172.816 154.494 173.133 154.494 173.578V180.926C154.494 181.289 154.359 181.57 154.09 181.77C153.82 181.957 153.533 182.08 153.229 182.139C151.494 182.479 149.812 182.766 148.184 183C146.555 183.246 144.932 183.369 143.314 183.369C141.135 183.369 139.219 183.182 137.566 182.807C135.926 182.432 134.555 181.84 133.453 181.031C132.352 180.211 131.52 179.162 130.957 177.885C130.406 176.596 130.131 175.037 130.131 173.209C130.131 171.381 130.406 169.828 130.957 168.551C131.52 167.262 132.352 166.213 133.453 165.404C134.555 164.584 135.926 163.986 137.566 163.611C139.219 163.236 141.135 163.049 143.314 163.049C144.838 163.049 146.314 163.189 147.744 163.471C149.174 163.74 150.627 164.18 152.104 164.789C152.291 164.871 152.426 164.977 152.508 165.105C152.59 165.223 152.631 165.34 152.631 165.457C152.631 165.598 152.578 165.721 152.473 165.826C152.367 165.932 152.232 165.984 152.068 165.984C152.021 165.984 151.91 165.955 151.734 165.896C150.387 165.334 148.992 164.912 147.551 164.631C146.109 164.35 144.697 164.209 143.314 164.209C141.229 164.209 139.447 164.385 137.971 164.736C136.494 165.076 135.281 165.615 134.332 166.354C133.395 167.08 132.709 168.012 132.275 169.148C131.842 170.273 131.625 171.627 131.625 173.209C131.625 174.791 131.842 176.15 132.275 177.287C132.709 178.412 133.395 179.344 134.332 180.082C135.281 180.809 136.494 181.348 137.971 181.699C139.447 182.039 141.229 182.209 143.314 182.209Z" fill="black"/>
<path d="M40.6416 119.1C40.6416 118.606 39.0666 115.861 37.1416 113C35.2166 110.139 33.6416 107.67 33.6416 107.512C33.6416 107.354 36.0041 107.287 38.8916 107.362L44.1416 107.5L45.9768 102C48.4059 94.7201 49.3592 82.5695 47.6617 80.5242C45.6241 78.069 40.3869 78.6989 35.5421 81.9818C33.1218 83.6218 30.8529 84.9718 30.5 84.9818C30.1471 84.9918 29.5604 83.8125 29.1961 82.361C28.6891 80.3408 29.1191 79.1098 31.0302 77.111C34.407 73.5792 35.953 66.3518 34.6119 60.3673C34.0409 57.8193 33.843 55.4653 34.1722 55.1361C34.5014 54.8069 36.133 55.3194 37.798 56.275C40.6934 57.9367 41.0145 57.9287 45.1696 56.0906C49.0534 54.3726 49.6797 53.6107 51.0778 48.903C52.7899 43.1378 53.1019 38.4025 51.8219 37.6114C51.3711 37.3328 48.3336 37.9335 45.0719 38.9463C40.1857 40.4635 38.6254 40.5783 36.2098 39.5984C31.2041 37.5678 32.1095 36.29 39.0831 35.5432C42.7502 35.1505 47.6988 33.7846 50.3761 32.4263C56.0562 29.5444 56.9571 29.4826 60.7373 31.7156C64.3545 33.8523 64.3501 34.4291 60.6845 38.6039C56.9848 42.8177 54.1276 51.6757 55.8131 53.7067C57.6534 55.924 54.841 57.881 47.7293 59.3316C44.2682 60.0376 41.0663 61.2767 40.6139 62.0851C40.1614 62.8935 39.4745 66.3551 39.0873 69.7775C38.2816 76.899 38.6747 77.1709 45.7088 74.3565C49.5068 72.8368 50.0736 72.8356 53.229 74.3403C56.9644 76.1216 57.089 76.5957 55.6826 83.6737C55.1552 86.3282 54.2614 92.2459 53.6966 96.8243C53.1317 101.403 51.7868 107.144 50.7081 109.583C48.1883 115.279 40.6416 122.414 40.6416 119.1ZM68.4487 118.25C65.6704 115.015 65.6097 114.168 67.88 110.327C69.9669 106.796 70.1416 105.303 70.1416 91V75.5L66.4579 75.8206C62.8313 76.1363 58.6416 74.6944 58.6416 73.1306C58.6416 72.6912 62.3541 71.9195 66.8916 71.4158L75.1416 70.5L75.4232 58.1468C75.6747 47.1135 75.2809 42.9774 72.9902 32.5951C72.3947 29.8963 72.5192 29.7413 74.7454 30.4089C81.2368 32.3558 85.3009 32.1742 92.7446 29.605C96.8957 28.1723 101.919 27 103.908 27C107.641 27 109.564 28.4777 107.942 30.0999C107.104 30.9374 93.8698 33.9654 84.3916 35.4882C80.7097 36.0797 80.6416 36.1714 80.6416 40.5453C80.6416 43.3146 81.0904 45 81.8278 45C82.4802 45 86.3528 44.0631 90.4335 42.9181C97.5162 40.9307 102.642 40.9562 102.642 42.9789C102.642 44.4031 90.0301 48 85.0363 48H80.6416V52.5C80.6416 57.7588 80.5369 57.733 90.5735 54.9517C98.6729 52.7072 102.142 52.7121 102.142 54.968C102.142 56.7789 96.3977 58.5658 87.5005 59.5227L80.8593 60.237L80.229 64.1792C79.8822 66.3474 79.8226 68.4839 80.0965 68.927C80.3704 69.3701 88.0846 68.223 97.2393 66.3777C113.896 63.0204 117.491 62.9082 119.786 65.6743C121.688 67.9659 119.967 68.4851 105.894 69.8646C98.8804 70.5522 89.4305 71.6514 84.8947 72.3074L76.6479 73.5L84.5863 80.212L92.5247 86.924L97.0831 81.8538C99.5903 79.0653 101.642 75.9182 101.642 74.8605C101.642 73.8027 102.352 72.6647 103.22 72.3317C104.799 71.7256 109.709 74.7027 110.362 76.6625C110.553 77.235 107.034 80.1165 102.541 83.066L94.3728 88.4286L98.2572 91.7926C102.99 95.8912 113.936 101.216 122.445 103.558C125.912 104.513 128.387 105.649 127.945 106.083C126.426 107.576 110.273 109.191 107.479 108.128C106.035 107.579 99.8815 101.549 93.8048 94.7274C87.7281 87.9059 81.223 81.1554 79.3492 79.7261L75.9421 77.1274L75.3482 91.7867C75.0215 99.8493 74.952 106.644 75.1937 106.885C75.4354 107.127 76.8726 106.744 78.3874 106.033C89.0038 101.054 91.6402 100.104 91.6201 101.263C91.6082 101.943 89.1964 104.22 86.2605 106.323C83.3245 108.426 78.7387 112.363 76.0696 115.073C73.4006 117.783 70.9321 120 70.5842 120C70.2363 120 69.2753 119.213 68.4487 118.25Z" fill="black"/>
</svg>
