<svg width="148" height="148" viewBox="0 0 148 148" fill="none" xmlns="http://www.w3.org/2000/svg">
<circle cx="74" cy="74" r="72" fill="#79391D" stroke="black" stroke-width="4"/>
<path d="M36.6416 119.1C36.6416 118.606 35.0666 115.861 33.1416 113C31.2166 110.139 29.6416 107.67 29.6416 107.512C29.6416 107.354 32.0041 107.287 34.8916 107.362L40.1416 107.5L41.9768 102C44.4059 94.7201 45.3592 82.5695 43.6617 80.5242C41.6241 78.069 36.3869 78.6989 31.5421 81.9818C29.1218 83.6218 26.8529 84.9718 26.5 84.9818C26.1471 84.9918 25.5604 83.8125 25.1961 82.361C24.6891 80.3408 25.1191 79.1098 27.0302 77.111C30.407 73.5792 31.953 66.3518 30.6119 60.3673C30.0409 57.8193 29.843 55.4653 30.1722 55.1361C30.5014 54.8069 32.133 55.3194 33.798 56.275C36.6934 57.9367 37.0145 57.9287 41.1696 56.0906C45.0534 54.3726 45.6797 53.6107 47.0778 48.903C48.7899 43.1378 49.1019 38.4025 47.8219 37.6114C47.3711 37.3328 44.3336 37.9335 41.0719 38.9463C36.1857 40.4635 34.6254 40.5783 32.2098 39.5984C27.2041 37.5678 28.1095 36.29 35.0831 35.5432C38.7502 35.1505 43.6988 33.7846 46.3761 32.4263C52.0562 29.5444 52.9571 29.4826 56.7373 31.7156C60.3545 33.8523 60.3501 34.4291 56.6845 38.6039C52.9848 42.8177 50.1276 51.6757 51.8131 53.7067C53.6534 55.924 50.841 57.881 43.7293 59.3316C40.2682 60.0376 37.0663 61.2767 36.6139 62.0851C36.1614 62.8935 35.4745 66.3551 35.0873 69.7775C34.2816 76.899 34.6747 77.1709 41.7088 74.3565C45.5068 72.8368 46.0736 72.8356 49.229 74.3403C52.9644 76.1216 53.089 76.5957 51.6826 83.6737C51.1552 86.3282 50.2614 92.2459 49.6966 96.8243C49.1317 101.403 47.7868 107.144 46.7081 109.583C44.1883 115.279 36.6416 122.414 36.6416 119.1ZM64.4487 118.25C61.6704 115.015 61.6097 114.168 63.88 110.327C65.9669 106.796 66.1416 105.303 66.1416 91V75.5L62.4579 75.8206C58.8313 76.1363 54.6416 74.6944 54.6416 73.1306C54.6416 72.6912 58.3541 71.9195 62.8916 71.4158L71.1416 70.5L71.4232 58.1468C71.6747 47.1135 71.2809 42.9774 68.9902 32.5951C68.3947 29.8963 68.5192 29.7413 70.7454 30.4089C77.2368 32.3558 81.3009 32.1742 88.7446 29.605C92.8957 28.1723 97.9191 27 99.9078 27C103.641 27 105.564 28.4777 103.942 30.0999C103.104 30.9374 89.8698 33.9654 80.3916 35.4882C76.7097 36.0797 76.6416 36.1714 76.6416 40.5453C76.6416 43.3146 77.0904 45 77.8278 45C78.4802 45 82.3528 44.0631 86.4335 42.9181C93.5162 40.9307 98.6416 40.9562 98.6416 42.9789C98.6416 44.4031 86.0301 48 81.0363 48H76.6416V52.5C76.6416 57.7588 76.5369 57.733 86.5735 54.9517C94.6729 52.7072 98.1416 52.7121 98.1416 54.968C98.1416 56.7789 92.3977 58.5658 83.5005 59.5227L76.8593 60.237L76.229 64.1792C75.8822 66.3474 75.8226 68.4839 76.0965 68.927C76.3704 69.3701 84.0846 68.223 93.2393 66.3777C109.896 63.0204 113.491 62.9082 115.786 65.6743C117.688 67.9659 115.967 68.4851 101.894 69.8646C94.8804 70.5522 85.4305 71.6514 80.8947 72.3074L72.6479 73.5L80.5863 80.212L88.5247 86.924L93.0831 81.8538C95.5903 79.0653 97.6416 75.9182 97.6416 74.8605C97.6416 73.8027 98.3518 72.6647 99.2197 72.3317C100.799 71.7256 105.709 74.7027 106.362 76.6625C106.553 77.235 103.034 80.1165 98.5411 83.066L90.3728 88.4286L94.2572 91.7926C98.9898 95.8912 109.936 101.216 118.445 103.558C121.912 104.513 124.387 105.649 123.945 106.083C122.426 107.576 106.273 109.191 103.479 108.128C102.035 107.579 95.8815 101.549 89.8048 94.7274C83.7281 87.9059 77.223 81.1554 75.3492 79.7261L71.9421 77.1274L71.3482 91.7867C71.0215 99.8493 70.952 106.644 71.1937 106.885C71.4354 107.127 72.8726 106.744 74.3874 106.033C85.0038 101.054 87.6402 100.104 87.6201 101.263C87.6082 101.943 85.1964 104.22 82.2605 106.323C79.3245 108.426 74.7387 112.363 72.0696 115.073C69.4006 117.783 66.9321 120 66.5842 120C66.2363 120 65.2753 119.213 64.4487 118.25Z" fill="black"/>
</svg>
