<svg width="198" height="202" viewBox="0 0 198 202" fill="none" xmlns="http://www.w3.org/2000/svg">
<path d="M15.264 201.48C11.328 201.48 8.224 199.8 5.952 196.44C3.68 193.08 2.544 188.936 2.544 184.008C2.544 179.08 3.808 174.984 6.336 171.72C8.864 168.424 12.304 166.776 16.656 166.776C19.248 166.776 21.52 167.304 23.472 168.36C23.6 168.424 23.728 168.456 23.856 168.456C23.984 168.456 24.064 168.28 24.096 167.928L24.192 166.776C24.32 166.648 24.608 166.584 25.056 166.584C25.504 166.584 25.824 166.648 26.016 166.776L26.688 176.808C26.56 176.936 26.24 177 25.728 177C25.248 177 24.96 176.936 24.864 176.808C24.576 174.6 23.616 172.856 21.984 171.576C20.352 170.264 18.464 169.608 16.32 169.608C13.088 169.608 10.688 170.776 9.12 173.112C7.584 175.448 6.816 178.584 6.816 182.52C6.816 188.312 8.288 192.712 11.232 195.72C12.8 197.352 14.512 198.168 16.368 198.168C18.256 198.168 20.192 197.816 22.176 197.112C24.16 196.408 25.744 195.56 26.928 194.568C27.056 194.696 27.216 194.968 27.408 195.384C27.632 195.768 27.744 196.024 27.744 196.152C27.744 196.28 27.696 196.392 27.6 196.488C24.272 199.816 20.16 201.48 15.264 201.48ZM57.6146 167.544L62.2226 167.256C62.3186 167.352 62.3666 167.64 62.3666 168.12C62.3666 168.6 62.2866 168.92 62.1266 169.08C59.9506 169.08 58.8946 169.832 58.9586 171.336L59.8706 196.68C59.9026 197.544 60.1426 198.184 60.5906 198.6C61.0706 198.984 61.8866 199.176 63.0386 199.176C63.1986 199.336 63.2786 199.672 63.2786 200.184C63.2786 200.664 63.2466 200.936 63.1826 201L57.8066 200.712L52.1426 201C52.0466 200.904 51.9986 200.632 51.9986 200.184C51.9986 199.704 52.0946 199.368 52.2866 199.176C53.4386 199.176 54.2546 198.984 54.7346 198.6C55.2466 198.184 55.5026 197.544 55.5026 196.68L55.5986 184.824H38.7986L39.1346 196.68C39.1666 197.544 39.4066 198.184 39.8546 198.6C40.3346 198.984 41.1506 199.176 42.3026 199.176C42.4626 199.336 42.5426 199.672 42.5426 200.184C42.5426 200.664 42.5106 200.936 42.4466 201L37.1186 200.712L31.4066 201C31.3106 200.904 31.2626 200.632 31.2626 200.184C31.2626 199.704 31.3586 199.368 31.5506 199.176C32.7026 199.176 33.5186 198.984 33.9986 198.6C34.4786 198.184 34.7346 197.544 34.7666 196.68L35.2946 171.576C35.3266 170.712 35.0866 170.088 34.5746 169.704C34.0626 169.288 33.2306 169.08 32.0786 169.08C31.8546 168.92 31.7426 168.6 31.7426 168.12C31.7426 167.608 31.7746 167.32 31.8386 167.256L37.2146 167.544L41.8226 167.256C41.9186 167.352 41.9666 167.64 41.9666 168.12C41.9666 168.6 41.8866 168.92 41.7266 169.08C40.5426 169.08 39.7106 169.288 39.2306 169.704C38.7506 170.088 38.5266 170.712 38.5586 171.576L38.7506 182.04H55.5986L55.6946 171.576C55.6946 170.712 55.4386 170.088 54.9266 169.704C54.4466 169.288 53.6306 169.08 52.4786 169.08C52.2546 168.92 52.1426 168.6 52.1426 168.12C52.1426 167.608 52.1746 167.32 52.2386 167.256L57.6146 167.544ZM79.8945 182.616C81.2705 182.616 82.1505 181.992 82.5345 180.744C82.6625 180.264 82.8225 179.448 83.0145 178.296C83.1425 178.168 83.4305 178.104 83.8785 178.104C84.3265 178.104 84.6465 178.168 84.8385 178.296C84.5825 180.248 84.4545 182.12 84.4545 183.912C84.4545 185.672 84.5825 187.528 84.8385 189.48C84.7105 189.608 84.3905 189.672 83.8785 189.672C83.3985 189.672 83.1105 189.608 83.0145 189.48C82.8225 188.392 82.6465 187.624 82.4865 187.176C82.3585 186.696 82.0865 186.28 81.6705 185.928C81.2545 185.544 80.6625 185.352 79.8945 185.352H74.5665L74.8545 194.712C74.9185 196.056 75.1585 197 75.5745 197.544C76.0225 198.056 76.8385 198.312 78.0225 198.312H84.5025C85.9745 198.312 87.2065 197.816 88.1985 196.824C89.2225 195.8 90.2145 194.216 91.1745 192.072C91.2385 192.008 91.4785 191.976 91.8945 191.976C92.3425 191.976 92.7105 192.12 92.9985 192.408L90.5025 201.48C86.4385 201.064 82.1825 200.856 77.7345 200.856C73.3185 200.856 69.7825 200.904 67.1265 201C67.0305 200.904 66.9825 200.632 66.9825 200.184C66.9825 199.704 67.0785 199.368 67.2705 199.176C68.4225 199.176 69.2385 198.984 69.7185 198.6C70.1985 198.184 70.4545 197.544 70.4865 196.68L70.9185 171.576C70.9185 170.712 70.6625 170.088 70.1505 169.704C69.6705 169.288 68.8545 169.08 67.7025 169.08C67.4785 168.92 67.3665 168.6 67.3665 168.12C67.3665 167.608 67.3985 167.32 67.4625 167.256C70.1505 167.352 73.4785 167.4 77.4465 167.4C81.4145 167.4 85.4785 167.192 89.6385 166.776L90.3105 175.224C90.1825 175.352 89.8625 175.416 89.3505 175.416C88.8385 175.416 88.5345 175.352 88.4385 175.224C88.1505 173.208 87.6225 171.864 86.8545 171.192C86.0865 170.488 84.8545 170.136 83.1585 170.136H74.1345L74.5185 182.616H79.8945ZM121.766 167.544L127.958 167.256C128.022 167.384 128.054 167.672 128.054 168.12C128.054 168.568 127.958 168.888 127.766 169.08C126.358 169.08 125.35 169.288 124.742 169.704C124.134 170.088 123.83 170.712 123.83 171.576L123.734 189.096C123.702 192.968 122.534 196.008 120.23 198.216C117.926 200.392 114.854 201.48 111.014 201.48C107.174 201.48 104.246 200.392 102.23 198.216C100.246 196.04 99.2703 193 99.3023 189.096L99.3503 171.576C99.3503 170.68 99.0623 170.04 98.4863 169.656C97.9423 169.272 96.8703 169.08 95.2703 169.08C95.0783 168.888 94.9823 168.568 94.9823 168.12C94.9823 167.64 95.0303 167.352 95.1263 167.256L101.702 167.544L107.942 167.256C108.006 167.32 108.038 167.608 108.038 168.12C108.038 168.6 107.958 168.92 107.798 169.08C106.23 169.08 105.126 169.288 104.486 169.704C103.878 170.088 103.59 170.712 103.622 171.576L104.054 188.568C104.15 191.864 104.726 194.376 105.782 196.104C106.87 197.8 108.854 198.648 111.734 198.648C114.614 198.648 116.79 197.752 118.262 195.96C119.766 194.168 120.502 191.704 120.47 188.568L120.278 171.576C120.278 170.776 119.862 170.168 119.03 169.752C118.23 169.304 117.19 169.08 115.91 169.08C115.718 168.888 115.622 168.568 115.622 168.12C115.622 167.64 115.67 167.352 115.766 167.256L121.766 167.544ZM157.283 167.544L162.227 167.256C162.291 167.384 162.323 167.672 162.323 168.12C162.323 168.536 162.211 168.856 161.987 169.08C160.803 169.08 159.971 169.272 159.491 169.656C159.043 170.04 158.819 170.68 158.819 171.576L158.435 201C158.307 201.128 157.907 201.192 157.235 201.192C156.595 201.192 156.227 201.128 156.131 201L137.219 172.344L138.083 196.68C138.115 197.576 138.355 198.216 138.803 198.6C139.283 198.984 140.115 199.176 141.299 199.176C141.523 199.464 141.635 199.832 141.635 200.28C141.635 200.696 141.603 200.936 141.539 201L135.587 200.712L130.595 201C130.499 200.904 130.451 200.632 130.451 200.184C130.451 199.704 130.547 199.368 130.739 199.176C131.891 199.176 132.691 198.984 133.139 198.6C133.619 198.184 133.875 197.544 133.907 196.68L134.435 171.576C134.467 170.712 134.227 170.088 133.715 169.704C133.203 169.288 132.371 169.08 131.219 169.08C130.995 168.92 130.883 168.6 130.883 168.12C130.883 167.608 130.915 167.32 130.979 167.256C132.323 167.448 133.635 167.544 134.915 167.544C136.195 167.544 137.507 167.448 138.851 167.256L155.939 194.52L155.123 171.576C155.091 170.712 154.835 170.088 154.355 169.704C153.875 169.288 153.075 169.08 151.955 169.08C151.763 168.888 151.667 168.568 151.667 168.12C151.667 167.64 151.715 167.352 151.811 167.256L157.283 167.544ZM187.927 195.24L187.976 191.544C187.976 189.944 187.608 188.904 186.872 188.424C186.168 187.912 184.376 187.544 181.496 187.32C181.368 187.224 181.304 186.92 181.304 186.408C181.304 185.896 181.368 185.576 181.496 185.448C183.288 185.576 185.688 185.64 188.696 185.64C191.704 185.64 194.12 185.576 195.944 185.448C196.072 185.64 196.136 185.976 196.136 186.456C196.136 186.904 196.072 187.192 195.944 187.32C194.216 187.512 193.16 187.832 192.776 188.28C192.392 188.728 192.2 189.592 192.2 190.872V197.736C190.28 199.016 188.472 199.96 186.776 200.568C185.112 201.176 183 201.48 180.44 201.48C175.832 201.48 172.296 199.848 169.832 196.584C167.4 193.288 166.184 189.16 166.184 184.2C166.184 179.24 167.592 175.096 170.408 171.768C173.224 168.44 177.032 166.776 181.832 166.776C184.616 166.776 187.032 167.304 189.08 168.36C189.208 168.424 189.32 168.456 189.416 168.456C189.544 168.456 189.624 168.312 189.656 168.024L189.8 166.968C189.928 166.84 190.216 166.776 190.664 166.776C191.112 166.776 191.432 166.84 191.624 166.968L192.296 176.376C192.168 176.504 191.848 176.568 191.336 176.568C190.856 176.568 190.568 176.504 190.472 176.376C190.184 174.168 189.24 172.488 187.64 171.336C186.04 170.184 184.136 169.608 181.928 169.608C174.312 169.608 170.504 173.912 170.504 182.52C170.504 184.952 170.904 187.336 171.704 189.672C172.536 192.008 173.8 194.008 175.496 195.672C177.224 197.336 179.208 198.168 181.448 198.168C183.688 198.168 185.832 197.752 187.88 196.92C187.911 196.856 187.927 196.296 187.927 195.24Z" fill="black"/>
<circle cx="99" cy="74" r="72" fill="#79391D" stroke="black" stroke-width="4"/>
<path d="M61.6416 119.1C61.6416 118.606 60.0666 115.861 58.1416 113C56.2166 110.139 54.6416 107.67 54.6416 107.512C54.6416 107.354 57.0041 107.287 59.8916 107.362L65.1416 107.5L66.9768 102C69.4059 94.7201 70.3592 82.5695 68.6617 80.5242C66.6241 78.069 61.3869 78.6989 56.5421 81.9818C54.1218 83.6218 51.8529 84.9718 51.5 84.9818C51.1471 84.9918 50.5604 83.8125 50.1961 82.361C49.6891 80.3408 50.1191 79.1098 52.0302 77.111C55.407 73.5792 56.953 66.3518 55.6119 60.3673C55.0409 57.8193 54.843 55.4653 55.1722 55.1361C55.5014 54.8069 57.133 55.3194 58.798 56.275C61.6934 57.9367 62.0145 57.9287 66.1696 56.0906C70.0534 54.3726 70.6797 53.6107 72.0778 48.903C73.7899 43.1378 74.1019 38.4025 72.8219 37.6114C72.3711 37.3328 69.3336 37.9335 66.0719 38.9463C61.1857 40.4635 59.6254 40.5783 57.2098 39.5984C52.2041 37.5678 53.1095 36.29 60.0831 35.5432C63.7502 35.1505 68.6988 33.7846 71.3761 32.4263C77.0562 29.5444 77.9571 29.4826 81.7373 31.7156C85.3545 33.8523 85.3501 34.4291 81.6845 38.6039C77.9848 42.8177 75.1276 51.6757 76.8131 53.7067C78.6534 55.924 75.841 57.881 68.7293 59.3316C65.2682 60.0376 62.0663 61.2767 61.6139 62.0851C61.1614 62.8935 60.4745 66.3551 60.0873 69.7775C59.2816 76.899 59.6747 77.1709 66.7088 74.3565C70.5068 72.8368 71.0736 72.8356 74.229 74.3403C77.9644 76.1216 78.089 76.5957 76.6826 83.6737C76.1552 86.3282 75.2614 92.2459 74.6966 96.8243C74.1317 101.403 72.7868 107.144 71.7081 109.583C69.1883 115.279 61.6416 122.414 61.6416 119.1ZM89.4487 118.25C86.6704 115.015 86.6097 114.168 88.88 110.327C90.9669 106.796 91.1416 105.303 91.1416 91V75.5L87.4579 75.8206C83.8313 76.1363 79.6416 74.6944 79.6416 73.1306C79.6416 72.6912 83.3541 71.9195 87.8916 71.4158L96.1416 70.5L96.4232 58.1468C96.6747 47.1135 96.2809 42.9774 93.9902 32.5951C93.3947 29.8963 93.5192 29.7413 95.7454 30.4089C102.237 32.3558 106.301 32.1742 113.745 29.605C117.896 28.1723 122.919 27 124.908 27C128.641 27 130.564 28.4777 128.942 30.0999C128.104 30.9374 114.87 33.9654 105.392 35.4882C101.71 36.0797 101.642 36.1714 101.642 40.5453C101.642 43.3146 102.09 45 102.828 45C103.48 45 107.353 44.0631 111.433 42.9181C118.516 40.9307 123.642 40.9562 123.642 42.9789C123.642 44.4031 111.03 48 106.036 48H101.642V52.5C101.642 57.7588 101.537 57.733 111.574 54.9517C119.673 52.7072 123.142 52.7121 123.142 54.968C123.142 56.7789 117.398 58.5658 108.5 59.5227L101.859 60.237L101.229 64.1792C100.882 66.3474 100.823 68.4839 101.097 68.927C101.37 69.3701 109.085 68.223 118.239 66.3777C134.896 63.0204 138.491 62.9082 140.786 65.6743C142.688 67.9659 140.967 68.4851 126.894 69.8646C119.88 70.5522 110.431 71.6514 105.895 72.3074L97.6479 73.5L105.586 80.212L113.525 86.924L118.083 81.8538C120.59 79.0653 122.642 75.9182 122.642 74.8605C122.642 73.8027 123.352 72.6647 124.22 72.3317C125.799 71.7256 130.709 74.7027 131.362 76.6625C131.553 77.235 128.034 80.1165 123.541 83.066L115.373 88.4286L119.257 91.7926C123.99 95.8912 134.936 101.216 143.445 103.558C146.912 104.513 149.387 105.649 148.945 106.083C147.426 107.576 131.273 109.191 128.479 108.128C127.035 107.579 120.882 101.549 114.805 94.7274C108.728 87.9059 102.223 81.1554 100.349 79.7261L96.9421 77.1274L96.3482 91.7867C96.0215 99.8493 95.952 106.644 96.1937 106.885C96.4354 107.127 97.8726 106.744 99.3874 106.033C110.004 101.054 112.64 100.104 112.62 101.263C112.608 101.943 110.196 104.22 107.26 106.323C104.325 108.426 99.7387 112.363 97.0696 115.073C94.4006 117.783 91.9321 120 91.5842 120C91.2363 120 90.2753 119.213 89.4487 118.25Z" fill="black"/>
</svg>
